<?xml version="1.0" standalone="no"?>
<!DOCTYPE svg PUBLIC "-//W3C//DTD SVG 20010904//EN"
 "http://www.w3.org/TR/2001/REC-SVG-20010904/DTD/svg10.dtd">
<svg version="1.0" xmlns="http://www.w3.org/2000/svg"
 width="2026.000000pt" height="2026.000000pt" viewBox="0 0 2026.000000 2026.000000"
 preserveAspectRatio="xMidYMid meet">
<metadata>
Created by potrace 1.14, written by Peter Selinger 2001-2017
</metadata>
<g transform="translate(0.000000,2026.000000) scale(0.100000,-0.100000)"
fill="#000000" stroke="none">
<path d="M7309 16526 c-2 -2 -92 -7 -199 -11 -235 -8 -374 -16 -530 -30 -25
-2 -76 -6 -115 -10 -88 -7 -160 -14 -205 -20 -19 -2 -60 -7 -90 -10 -30 -3
-64 -7 -75 -9 -11 -2 -47 -7 -80 -10 -50 -6 -245 -37 -385 -61 -132 -23 -376
-94 -485 -140 -65 -28 -139 -81 -158 -115 -49 -83 33 -168 232 -240 74 -27
273 -83 331 -94 14 -2 75 -13 135 -25 123 -23 320 -53 435 -66 25 -3 68 -8 95
-11 28 -3 64 -7 80 -9 17 -2 66 -6 110 -10 44 -3 96 -8 115 -10 121 -14 414
-31 730 -41 365 -13 1172 -6 1350 11 19 2 91 6 160 9 69 4 141 9 160 11 19 2
73 7 120 10 47 3 119 10 160 15 41 5 107 12 145 15 39 3 77 8 85 10 8 2 44 7
80 10 36 4 72 8 80 10 8 1 35 6 60 10 25 4 52 9 61 10 9 2 39 6 67 10 l52 6 0
-480 c0 -451 -1 -481 -17 -482 -10 0 -25 -2 -33 -4 -8 -1 -53 -5 -100 -9 -83
-6 -134 -12 -195 -21 -16 -2 -52 -7 -80 -11 -27 -3 -59 -8 -70 -10 -11 -3 -36
-7 -55 -10 -82 -13 -305 -62 -410 -89 -112 -28 -432 -131 -485 -155 -11 -5
-51 -21 -90 -36 -166 -63 -393 -171 -565 -267 -164 -92 -337 -200 -431 -268
-19 -14 -77 -57 -129 -95 -331 -241 -689 -591 -952 -932 -66 -85 -168 -227
-168 -234 0 -3 57 12 128 34 347 105 1089 266 1447 314 28 3 58 8 68 10 17 3
193 27 292 40 28 3 58 8 67 9 9 2 48 7 85 10 37 4 75 8 83 10 8 3 47 7 85 10
39 3 86 8 105 10 69 8 139 15 335 30 39 3 90 8 115 10 95 9 267 18 575 31 379
16 1340 10 1650 -11 22 -1 92 -5 155 -9 63 -4 135 -9 160 -11 25 -2 83 -7 130
-10 47 -4 102 -8 124 -10 21 -3 68 -7 105 -10 36 -3 80 -7 96 -10 17 -2 64 -6
105 -10 41 -3 86 -8 100 -10 30 -5 88 -13 155 -20 28 -3 64 -7 80 -10 17 -3
48 -7 70 -10 22 -3 72 -10 110 -15 39 -6 88 -13 110 -16 230 -32 645 -110 905
-170 63 -14 122 -27 130 -29 8 -2 33 -8 55 -14 22 -6 49 -12 60 -14 36 -7 271
-71 403 -110 l83 -25 -24 32 c-13 17 -41 56 -62 86 -46 66 -214 279 -264 334
-113 124 -145 159 -236 250 -180 180 -332 312 -530 461 -110 83 -346 243 -426
289 -179 104 -368 201 -554 286 -269 122 -697 257 -1012 319 -134 27 -151 30
-203 37 -25 3 -54 8 -65 10 -11 2 -42 7 -70 10 -27 3 -61 7 -74 9 -13 2 -63 7
-110 11 -47 4 -97 8 -111 10 -14 1 -30 3 -36 3 -8 1 -11 135 -10 479 l1 477
30 0 c17 1 59 -5 95 -11 36 -7 86 -15 110 -18 25 -3 63 -8 85 -11 22 -3 58 -7
80 -10 90 -11 215 -24 291 -30 64 -6 180 -16 224 -20 474 -45 1471 -50 2140
-11 58 4 121 9 140 11 19 2 73 7 120 10 47 4 96 8 110 10 14 2 57 6 95 10 66
5 129 12 185 20 14 2 50 7 80 10 30 3 66 7 80 10 14 2 45 7 70 10 25 3 52 8
60 10 8 2 35 7 60 10 87 12 370 76 465 105 215 66 335 147 335 225 0 81 -139
164 -400 238 -96 28 -285 69 -377 83 -21 3 -76 11 -123 19 -91 15 -139 22
-210 30 -25 3 -61 7 -80 10 -47 6 -218 23 -305 30 -38 3 -90 8 -115 10 -25 3
-90 7 -145 10 -55 4 -116 8 -135 10 -267 27 -1419 27 -1815 0 -22 -1 -92 -6
-155 -10 -63 -3 -128 -8 -145 -9 -16 -2 -68 -7 -115 -11 -214 -19 -273 -25
-300 -30 -14 -3 -50 -7 -80 -10 -56 -6 -294 -41 -340 -50 -14 -3 -38 -8 -55
-11 -16 -3 -75 -15 -130 -27 -102 -22 -151 -26 -195 -15 -29 8 -113 25 -152
33 -16 3 -38 7 -50 10 -106 21 -306 50 -483 70 -27 4 -66 8 -85 10 -19 3 -66
7 -105 10 -38 4 -81 8 -95 10 -14 2 -70 7 -125 10 -55 4 -113 8 -130 10 -16 2
-86 6 -155 10 -69 3 -159 9 -200 11 -84 6 -1176 15 -1181 10z"/>
<path d="M9628 12855 c-2 -2 -84 -6 -183 -10 -234 -8 -399 -17 -575 -31 -36
-2 -94 -7 -130 -9 -95 -7 -191 -16 -220 -20 -14 -2 -61 -7 -105 -11 -44 -3
-87 -8 -96 -9 -9 -2 -52 -6 -95 -10 -43 -4 -86 -9 -94 -10 -9 -2 -43 -6 -75
-10 -33 -4 -71 -8 -85 -10 -14 -2 -45 -6 -70 -10 -25 -3 -56 -8 -70 -10 -14
-2 -45 -7 -70 -10 -25 -4 -85 -13 -135 -20 -49 -8 -108 -17 -130 -20 -34 -5
-303 -53 -385 -69 -14 -3 -90 -19 -170 -35 -80 -17 -156 -34 -170 -37 -59 -12
-281 -66 -345 -84 -38 -11 -88 -24 -110 -29 -103 -24 -493 -148 -511 -162 -34
-27 -247 -485 -331 -712 l-29 -78 -64 49 c-168 125 -533 357 -745 472 -382
208 -785 364 -1045 405 -25 4 -54 10 -65 12 -11 3 -90 7 -175 9 -228 4 -367
-30 -521 -128 -136 -87 -365 -362 -616 -738 -76 -113 -253 -399 -253 -407 0
-3 -16 -32 -36 -64 -71 -118 -316 -594 -372 -724 -11 -27 -44 -102 -72 -165
-28 -63 -51 -117 -51 -120 -2 -6 -9 -26 -49 -125 -65 -163 -138 -375 -204
-595 -26 -86 -102 -403 -112 -468 -3 -19 -7 -43 -9 -53 -2 -10 -11 -67 -19
-126 -8 -59 -18 -126 -21 -148 -13 -86 -13 -480 0 -587 41 -328 134 -567 304
-783 230 -291 614 -544 1058 -694 181 -62 416 -124 546 -145 15 -3 35 -7 45
-10 9 -2 37 -7 62 -10 25 -4 56 -8 70 -10 14 -2 47 -7 73 -11 27 -4 57 -8 67
-10 10 -2 51 -7 91 -10 40 -4 81 -8 92 -10 97 -19 820 -27 1051 -12 66 4 121
9 122 10 1 1 21 40 44 87 182 364 482 637 870 792 96 38 266 86 335 93 l60 7
-45 -24 c-105 -55 -331 -210 -440 -302 -93 -78 -246 -247 -304 -335 -130 -194
-171 -326 -170 -536 0 -138 46 -309 112 -415 96 -156 124 -191 242 -311 211
-213 562 -439 930 -599 41 -18 93 -40 115 -50 106 -46 476 -183 481 -177 1 1
-36 22 -84 46 -408 207 -697 460 -818 716 -56 119 -75 198 -75 309 0 331 242
651 699 923 50 31 92 58 92 60 0 3 -33 64 -74 136 -242 429 -420 930 -481
1352 -4 22 -8 47 -10 55 -2 8 -7 44 -10 80 -4 36 -10 97 -15 135 -8 74 -6 602
3 645 3 14 8 54 11 90 10 100 16 147 32 245 19 117 31 175 59 305 67 306 220
711 368 975 360 643 853 1015 1492 1125 123 21 383 29 505 16 25 -3 72 -7 105
-11 33 -3 67 -8 75 -10 8 -3 35 -7 60 -10 25 -3 74 -13 110 -21 36 -9 72 -17
80 -19 298 -66 722 -237 1072 -432 l107 -60 53 29 c230 127 441 228 648 311
161 65 486 161 610 181 19 3 44 7 55 10 11 2 42 7 68 10 27 4 56 9 65 11 77
14 385 21 477 11 17 -2 56 -7 88 -10 32 -4 82 -11 110 -17 29 -6 66 -13 82
-16 17 -3 89 -24 161 -48 216 -71 403 -171 578 -311 310 -247 543 -563 747
-1009 101 -222 224 -622 268 -870 6 -33 13 -70 15 -82 3 -11 8 -43 12 -70 3
-26 8 -55 9 -63 2 -9 6 -43 10 -75 4 -33 9 -71 11 -85 31 -194 24 -772 -12
-960 -2 -14 -7 -43 -10 -65 -2 -22 -7 -51 -10 -65 -4 -14 -8 -38 -11 -55 -17
-111 -141 -544 -183 -640 -4 -11 -32 -76 -61 -145 -54 -129 -153 -330 -214
-435 -63 -111 -76 -136 -70 -144 3 -5 24 -19 47 -31 54 -27 250 -158 303 -202
286 -236 436 -487 435 -733 0 -84 -4 -127 -16 -167 -3 -9 -7 -25 -9 -35 -3
-18 -22 -66 -55 -139 -30 -66 -127 -194 -209 -275 -150 -151 -323 -272 -586
-412 -60 -32 -101 -56 -90 -52 664 217 1177 494 1497 807 210 205 314 381 362
613 20 94 14 273 -11 350 -4 11 -8 25 -9 30 -4 23 -59 153 -82 195 -82 149
-232 320 -395 452 -103 83 -310 223 -402 272 l-50 27 45 -5 c25 -3 59 -7 75
-10 76 -15 298 -87 303 -98 2 -5 10 -8 17 -8 18 0 141 -62 223 -112 256 -156
467 -387 602 -658 23 -47 43 -86 44 -87 8 -9 285 -17 571 -18 339 0 546 9 705
30 25 4 65 8 90 11 25 2 70 9 100 14 30 5 73 12 95 15 48 7 63 10 135 25 30 6
66 14 80 16 73 14 240 59 352 93 599 187 1078 535 1282 930 134 259 187 527
181 906 -2 116 -6 224 -8 240 -3 17 -8 57 -12 90 -9 83 -44 291 -60 363 -6 27
-9 37 -29 126 -216 921 -840 2177 -1444 2906 -187 225 -300 309 -489 366 -75
23 -110 27 -238 29 -166 4 -252 -5 -405 -41 -36 -9 -76 -18 -89 -20 -13 -3
-39 -11 -57 -19 -19 -8 -34 -12 -34 -10 0 3 -17 -1 -37 -9 -21 -8 -72 -26
-113 -41 -84 -31 -128 -49 -260 -108 -174 -77 -371 -182 -585 -310 -147 -88
-446 -286 -535 -354 l-44 -34 -23 63 c-13 35 -29 74 -35 88 -6 14 -14 34 -18
45 -60 158 -258 573 -284 594 -10 7 -216 75 -397 130 -65 20 -432 116 -479
125 -14 3 -97 21 -185 40 -135 30 -427 87 -515 102 -14 2 -81 13 -150 24 -162
26 -314 49 -370 55 -25 3 -61 7 -80 10 -19 3 -57 8 -85 11 -27 3 -58 8 -67 9
-9 2 -49 7 -90 10 -40 4 -86 8 -103 11 -50 6 -345 33 -425 39 -41 3 -102 7
-135 10 -72 6 -169 12 -325 20 -63 4 -153 8 -200 11 -91 5 -1217 13 -1222 9z
m-5247 -1541 c235 -40 503 -150 820 -337 l96 -56 -23 -113 c-32 -160 -55 -310
-69 -448 -4 -36 -9 -78 -11 -95 -20 -186 -21 -752 0 -860 2 -11 7 -54 11 -95
6 -68 38 -297 50 -360 16 -81 27 -138 31 -157 46 -227 184 -669 267 -855 53
-119 67 -152 67 -160 0 -6 -34 -41 -75 -80 -41 -38 -97 -100 -125 -136 -48
-64 -110 -176 -110 -200 0 -17 -13 -21 -81 -27 -35 -4 -69 -8 -76 -10 -53 -17
-619 -26 -803 -12 -260 19 -534 73 -755 149 -353 121 -652 351 -775 597 -46
92 -80 200 -95 301 -3 20 -8 47 -10 60 -13 66 -6 391 11 474 2 12 9 48 14 81
12 73 14 82 35 170 9 39 19 80 21 92 10 53 108 356 134 418 5 11 29 70 53 130
182 450 472 957 731 1274 67 82 186 189 240 215 112 54 263 68 427 40z m11840
-8 c163 -45 312 -197 555 -566 78 -118 249 -406 249 -419 0 -3 13 -26 27 -51
26 -44 158 -315 158 -325 0 -2 11 -28 24 -57 50 -111 107 -258 155 -403 156
-470 201 -863 136 -1177 -50 -243 -161 -418 -375 -589 -234 -188 -620 -331
-1030 -384 -25 -3 -61 -8 -80 -10 -148 -20 -621 -27 -800 -12 -100 8 -194 18
-218 22 -9 2 -27 4 -40 4 -12 1 -25 9 -29 19 -35 103 -102 202 -215 316 -92
92 -98 101 -89 125 5 14 36 91 69 171 92 224 189 522 227 700 2 8 10 44 19 80
8 36 18 81 21 100 3 19 12 67 20 105 16 84 22 123 30 190 4 28 8 57 10 65 2 8
7 51 11 95 3 44 8 88 10 97 6 36 17 319 17 448 0 129 -10 352 -18 415 -2 17
-7 62 -10 100 -4 39 -17 140 -31 225 -31 202 -33 212 -48 271 -15 55 -8 71 34
84 11 3 20 11 20 16 0 5 5 9 10 9 6 0 29 12 53 27 71 45 337 177 427 212 144
56 265 91 380 110 79 12 255 6 321 -13z"/>
<path d="M8127 10644 c-1 -1 -47 -5 -102 -8 -384 -25 -769 -243 -996 -566
-103 -145 -171 -293 -214 -464 -53 -211 -53 -446 0 -659 108 -425 401 -763
809 -932 249 -103 502 -125 806 -70 60 10 263 83 320 114 30 17 71 39 91 50
65 36 193 137 262 207 204 206 337 468 381 749 15 91 15 363 1 435 -41 216
-131 428 -248 585 -57 78 -191 216 -252 261 -22 16 -42 32 -45 35 -6 9 -168
109 -175 109 -2 0 -33 14 -67 30 -111 54 -286 102 -423 115 -69 7 -145 11
-148 9z m570 -788 c218 -34 428 -208 509 -422 34 -91 39 -124 39 -249 -1 -165
-49 -294 -156 -420 -210 -246 -562 -306 -845 -145 -107 62 -207 171 -264 289
-50 104 -65 177 -63 311 5 322 254 596 583 642 34 5 146 1 197 -6z"/>
<path d="M12128 10646 c-1 -2 -46 -6 -98 -9 -524 -32 -997 -385 -1183 -882
-28 -76 -53 -164 -62 -223 -3 -20 -10 -62 -15 -92 -9 -55 -6 -322 5 -370 3
-14 8 -38 11 -55 28 -160 111 -357 216 -511 92 -136 264 -299 413 -391 130
-80 322 -152 479 -179 180 -31 407 -21 586 26 19 5 38 10 42 10 4 0 54 20 112
44 99 41 209 101 306 169 59 40 240 222 277 277 15 24 41 61 56 84 76 112 174
357 192 479 3 27 9 59 11 70 3 12 7 83 8 157 3 120 -4 200 -28 330 -18 91
-108 321 -142 360 -7 8 -12 19 -12 23 1 19 -129 191 -196 260 -130 133 -254
220 -418 296 -144 66 -298 106 -450 117 -45 3 -88 7 -95 9 -6 2 -13 2 -15 1z
m-329 -791 c134 -20 287 -107 384 -217 68 -76 134 -213 153 -318 47 -250 -49
-499 -251 -652 -81 -62 -163 -102 -256 -124 -13 -4 -73 -8 -134 -10 -183 -5
-329 49 -462 170 -291 266 -293 713 -5 984 30 28 59 52 63 52 4 0 14 6 21 13
38 35 157 84 248 101 67 13 161 13 239 1z"/>
<path d="M9960 8063 c-289 -39 -539 -161 -663 -324 -62 -82 -97 -228 -73 -309
16 -54 29 -79 38 -74 14 9 56 14 123 14 121 0 193 -21 285 -84 98 -67 153
-154 167 -266 3 -25 7 -47 9 -49 21 -23 369 -35 487 -16 42 7 80 14 83 17 2 3
6 21 8 39 9 86 39 150 98 215 48 52 146 110 221 130 55 15 190 20 220 9 19 -8
73 2 64 12 -4 3 -2 14 4 24 16 30 18 136 4 189 -37 140 -154 268 -325 355 -46
23 -195 76 -255 90 -119 28 -383 43 -495 28z"/>
<path d="M7470 7012 c-123 -9 -276 -58 -356 -113 -189 -129 -268 -365 -230
-684 9 -81 36 -239 42 -244 6 -6 4 -11 63 139 30 74 60 142 66 150 7 8 16 26
20 40 4 14 19 42 31 62 13 21 24 40 24 43 0 3 16 28 35 55 19 27 35 52 35 55
0 15 108 143 190 225 117 118 127 126 242 194 51 31 100 60 108 65 11 7 1 10
-35 12 -97 3 -200 4 -235 1z"/>
<path d="M12545 7009 c-27 -3 -44 -7 -37 -7 22 -3 152 -82 227 -138 127 -94
254 -234 352 -387 61 -96 153 -282 199 -404 22 -57 42 -103 45 -103 6 0 17 51
35 160 25 148 24 333 -1 437 -36 146 -110 258 -218 332 -49 33 -144 76 -188
85 -113 23 -157 28 -253 29 -61 1 -133 -1 -161 -4z"/>
<path d="M9070 6353 c-162 -19 -261 -47 -383 -109 -149 -75 -288 -202 -385
-349 l-47 -73 -70 31 c-39 18 -135 64 -214 104 -80 40 -146 71 -147 70 -7 -7
61 -97 118 -156 55 -56 186 -162 236 -190 14 -8 14 -15 2 -67 -7 -33 -16 -66
-18 -74 -13 -43 -10 -300 4 -365 66 -313 260 -565 539 -701 50 -24 95 -44 101
-44 6 0 10 45 11 110 2 177 36 294 119 421 105 160 269 270 464 313 20 4 30
18 48 65 129 333 517 517 887 420 208 -55 401 -224 477 -419 20 -53 26 -59 58
-65 106 -18 235 -76 320 -143 185 -146 276 -343 275 -594 0 -61 4 -98 10 -98
6 0 42 15 80 34 141 68 280 185 371 312 76 106 150 275 168 384 3 19 8 46 11
60 18 85 -2 329 -33 411 -10 25 -6 29 76 87 48 33 112 84 143 114 55 53 153
177 145 185 -2 2 -56 -23 -119 -57 -64 -33 -161 -81 -216 -105 l-100 -43 -27
46 c-92 158 -257 311 -418 386 -286 135 -588 134 -861 0 -126 -62 -131 -65
-220 -139 -121 -102 -201 -136 -326 -140 -136 -5 -252 40 -364 140 -62 55
-241 165 -268 165 -5 0 -23 7 -40 14 -86 40 -302 71 -407 59z"/>
<path d="M10005 5609 c-27 -6 -54 -14 -60 -18 -5 -5 -21 -11 -35 -14 -37 -9
-138 -77 -184 -123 -88 -88 -135 -192 -150 -330 -4 -34 12 -142 27 -184 36
-103 118 -205 220 -271 194 -125 472 -114 652 25 135 105 208 248 208 407 0
220 -156 422 -379 492 -81 26 -213 32 -299 16z"/>
<path d="M9340 5078 c-177 -101 -294 -264 -347 -483 -12 -50 -10 -224 3 -285
37 -173 140 -336 272 -434 59 -43 173 -100 232 -116 25 -7 54 -15 65 -18 11
-4 259 -7 550 -9 504 -2 534 -1 609 18 184 47 332 150 432 301 221 333 134
781 -194 1001 -102 68 -97 69 -108 -15 -9 -73 -9 -73 25 -128 160 -255 36
-584 -254 -672 -48 -14 -878 -20 -953 -7 -208 38 -362 223 -362 434 0 89 28
185 71 244 17 24 31 50 31 59 0 18 -13 136 -16 139 -1 1 -26 -12 -56 -29z"/>
<path d="M9525 4656 c8 -108 51 -191 128 -248 89 -65 113 -68 480 -68 375 -1
404 4 493 82 67 59 101 130 111 233 l6 60 -64 -66 c-240 -246 -601 -305 -904
-146 -33 18 -66 37 -73 44 -7 7 -17 13 -21 13 -4 0 -42 35 -84 77 l-77 77 5
-58z"/>
</g>
</svg>
